<?xml version="1.0"?>
<svg xmlns:rdf="http://www.w3.org/1999/02/22-rdf-syntax-ns#" xmlns="http://www.w3.org/2000/svg" xmlns:cc="http://web.resource.org/cc/" xmlns:dc="http://purl.org/dc/elements/1.1/" xmlns:svg="http://www.w3.org/2000/svg" id="svg1291" space="preserve" overflow="visible" viewBox="0 0 331.698 303.825" version="1.0" enable-background="new 0 0 331.698 303.825">
  <path id="path1390" d="m0.248 47.779c2.889-2.612 6.622-3.117 11.488-3.895 4.867-0.778 6.423-2.918 8.372-4.867 1.948-1.948 6.425-6.231 11.098-4.479s10.32-0.39 12.072-1.752 4.67-1.752 6.035-4.089c1.365-2.336 2.14-2.339 4.673-2.143s4.673-1.752 5.063-3.504c0.39-1.752 1.752-3.696 3.505-4.477 1.752-0.781 2.923-1.752 3.895-3.311 0.972-1.558 2.725-1.949 3.699-2.143s2.533-1.166 5.063-3.892c2.53-2.727 4.086-5.061 7.203-5.257s3.309-0.78 4.673-1.948c1.365-1.168 4.869-2.336 9.736-1.946s2.334 0.002 4.867 0.39c2.532 0.388 2.338 3.112-0.388 3.308-2.727 0.196-2.92 0.778-5.063 0.584 0.194 1.558-0.584 2.336-2.336 3.504s-3.699 2.14-4.867 3.505c-1.168 1.364-0.78 1.948-2.143 2.142-1.362 0.194-2.143 0.778-2.336 2.531-0.194 1.752-0.39 0.972-1.168 1.752-0.778 0.781-0.388 0.778-0.778 2.336-0.39 1.559-0.778 0.196-1.752 0.975-0.974 0.778-0.78 2.918-0.974 3.698s-0.778 0.977-2.53 1.365c-0.39 2.53-0.78 3.698-1.364 4.867-0.584 1.168-0.975 2.334-0.584 4.283 0.39 1.948 0.196 1.752-0.194 2.727s0.388 1.946 1.362 0.778c0.974-1.168 0.584-2.53 1.752-3.698s3.117-2.141 3.895-3.699c0.778-1.559 2.724-1.364 3.699-2.727 0.974-1.362 3.701-0.778 1.558 0.584-2.142 1.362-1.946 1.75-2.92 1.946s-0.388 0.584-0.778 1.752c-0.39 1.168-1.365 0.778-0.39 1.168 0.974 0.39 0.78 0.39 1.558-0.194s0.388 0.196 0.778-1.362 0.194-1.556 1.752-1.752c1.559-0.196 3.895-0.388 6.425 0s1.556 0.582 2.53 0.388c0.975-0.194 0.972 0.586 0 1.949-0.972 1.362-0.974 2.727 0 1.752 0.975-0.974 1.168 0 1.559-1.558 0.39-1.559-0.388-1.365 0.39-1.559s0.582-0.196 0.972 1.168c0.391 1.364 1.168 1.754 1.168 0.78s-1.157-1.88-0.388-1.752c2.336 0.388 3.502-0.778 3.892 1.168 0.391 1.946 0.778 2.918 2.921 2.724s2.14 0.393 2.336 2.533 0.586 1.168 1.948 2.336c1.362 1.168 1.36 0.584 1.556 1.946s-0.78 1.75 0.584 1.946c1.365 0.196 1.949 0.586 2.727 1.948s1.752 1.168 1.752 4.089 3.311 2.528 4.089 2.725c0.778 0.196 3.114 0.392 4.283-0.388 1.168-0.78 2.533 0 4.285-1.558 1.752-1.559 3.892-1.752 3.698 0.584s2.14 1.948 3.115 2.143c0.974 0.194 1.364 0.39 2.142 0s-0.002-0.002 0.778-1.365c0.78-1.362 0.78-1.946 1.949-0.778 1.168 1.168 0.972 1.168 2.14 1.752s1.948 1.946 2.533 1.362c0.584-0.584 0.972-0.972 1.556-2.53s1.556-2.53 2.921-2.92c1.364-0.39 1.364-2.53 2.727-2.53 1.362 0 2.143-0.584 2.143-0.584s0.075-0.55 1.752-1.558c0.972-0.584 2.334-1.556 3.309-1.946s1.364-0.78 1.364-1.559c0-0.778 1.556-1.362 2.725-1.168 1.168 0.194 4.618-0.094 6.972-0.714 2.355-0.621 8.799-0.372 10.66-0.372 1.862 0 7.808 0 11.778-2.853 3.97-2.852 6.078-2.975 8.556-2.975 2.479 0 2.482 0.495 3.597-0.249 1.113-0.744 3.098-1.485 1.61 1.985-1.487 3.471-1.113 9.421-0.99 11.281 0.123 1.859 1.487 1.859 1.734 2.108 0.246 0.249 5.585 0.37 6.201 0.124 0.616-0.247-0.004 0.995 0.616 1.241 0.621 0.246 1.615 0 3.227-0.744 1.61-0.744 2.601-2.603 3.965-2.48 1.365 0.123 2.359 0.995 2.359 2.729s1.237 1.98 3.099 0.246 1.241-0.865 2.108-0.99 0-0.867 0.621-1.736c0.62-0.869 1.61-0.618 2.231-0.744 0.62-0.125 0.246-0.374 0.743-1.241 0.498-0.867 0.625-0.249 1.118 0s0.616 0.869 1.236 1.613c0.621 0.744 0.867 1.485 1.365 2.354 0.497 0.87 1.364 2.727 1.984 3.719 0.621 0.993 0.493 1.485 0.37 2.231s1.246 1.367 1.615 0.125 0.985-0.623-0.128-1.985c-1.113-1.362-1.359-1.86-1.857-2.727-0.497-0.867-0.871-1.488-0.994-2.232-0.124-0.744 0-0.246-0.867-1.116-0.867-0.869-1.36-0.744-1.113-1.736 0.246-0.992 0.871-0.37 1.364-1.239 0.492-0.869 0.743-1.488 2.478-0.744 1.734 0.744 3.838 0.37 2.478 2.478-1.359 2.108-2.601 3.35-1.113 4.96 1.488 1.611 2.359 3.594 1.985 4.463-0.374 0.87 0.123 1.86 0.37 2.48 0.246 0.621 0.127 1.613-1.734 1.736-1.862 0.123-3.847 2.108-1.862 2.603s1.488 0.498 2.853 0.372 1.487 1.859 2.231 1.859 4.577-0.518 1.487 1.116c-2.108 1.116 1.985 3.347 2.729 3.719 0.743 0.372 0.374 0.867 1.364 1.239s1.364-0.372 2.108 0.249c0.743 0.621 0.994 1.611 0 2.231-0.995 0.621 0.246 0.621-1.241 0.249-1.488-0.372-1.616-2.108-2.231-0.372-0.616 1.736-1.241 1.364-2.231 0.249s-1.488-1.362-3.222-0.123c-1.734 1.239-2.359 0.493-4.094-0.125-1.734-0.619-2.231-0.249-3.099 0.372s-1.985 0.498-1.487 1.241c0.497 0.744 1.861 1.734 0.62 1.611s-2.729 0-2.231-1.116 1.862-0.869 0.744-2.108-1.862-0.372-2.605 0c-0.744 0.372-2.725 1.116-2.725-0.372s-0.502-0.867-1.615-0.867-2.602 1.114-2.602 0.124 0.247-1.86-0.743-0.744-1.113 0.619-0.99 2.231c0.123 1.613-1.369 1.736-0.995 3.473s0.497 1.241 0.374 2.852-0.123 1.488 0.744 1.488-0.123 1.859-0.867 1.611-2.729-0.002-3.227-0.993c-0.497-0.99-1.984-2.106-2.108-2.478-0.123-0.372-0.251-0.495-1.364-0.744s-1.118-0.497-1.61-1.241c-0.493-0.744 0.128-0.741-0.99-0.99s-1.606-0.123-0.99-0.992c0.616-0.87 0.497-0.619 1.487-0.372s3.099-0.247 0.867-1.116-2.359 0.372-3.847-0.249c-1.488-0.621-2.606-0.124-3.843-0.867s-1.364-1.364-3.719-0.993c-2.354 0.372-3.724-0.497-4.961-1.364-1.236-0.867-4.335 0-5.453 0.249-1.117 0.249-2.605-0.37-4.093 1.985-1.488 2.354-2.848 5.579-6.817 5.207-3.971-0.372-3.227-0.495-5.089 0.993-1.861 1.487-4.467 1.49-3.473-0.124 0.995-1.613 0.995-2.231-1.113-1.736s-0.62 1.241-3.101 1.365c-2.48 0.123-1.613 0.618-2.729 0.99s-0.991 0.002-1.983-0.247-0.621-0.123-1.116 0.744-0.992 0.493-2.108 0.99c-1.116 0.498-1.613 1.613-1.736 3.101-0.124 1.488-0.247 5.205-2.478 5.33s0 1.716-3.719 2.108c-2.357 0.249-1.611 1.118-1.487 1.241 0.123 0.124-0.128 0.99-0.747 0.99-0.618 0-1.364 0.746-1.116 1.613 0.249 0.867-0.246 1.488-0.99 1.611s-0.744 0.99-0.621 1.983c0.124 0.992 0.621 1.241-1.239-0.123-1.859-1.365-2.852-3.101-0.993-2.853 1.86 0.249 1.239-0.493 1.239-1.362 0-0.87 1.102-1.246 0.992-2.231-0.249-2.234 3.719-0.375 2.48-2.357-0.913-1.46 0.993-3.596 1.488-4.34s-1.367-3.345-3.101-0.618-3.473 3.101-4.463 2.231c-2.286-2.008-3.224-2.56-3.099 0.744 0.124 3.222-0.495 2.601-1.116 3.47-0.621 0.87-1.613 1.734-1.364 2.604s-0.621 0.621-2.231 0.993c-3.792 0.876-1.721-0.037-2.355-2.355-0.125-1.985-1.074-3.662 0.99-5.209 0.993-0.744-0.249-6.571-1.736-2.604 0 0-1.116 1.367-1.116 2.729s-1.736 0.619-1.487 3.471-0.744 3.847-2.357 5.458-3.842 1.985-3.719 4.217-2.357 1.608-2.357 4.709c0 3.101-1.86 3.722-1.86 5.209 0 1.488-1.362 3.22-1.982 4.338-0.621 1.118-2.106 2.603-2.231 4.339s-0.993 3.099-2.108 4.463c-0.883 1.08-3.714 3.174-3.726 6.245-0.002 0.604-2.443 1.008-2.92 0.292s-4.28-4.249-2.213-6.396c2.067-2.147 2.464-4.454 2.624-6.284s-1.193-3.58-2.943-1.83-6.683 2.385-5.17-1.91c1.513-4.294 3.897-5.325 1.433-7.792-2.464-2.466-0.477-4.054 0.08-5.567s-1.965-6.875-5.784-6.875-4.073 0.37-5.841-0.073c-1.374-0.345-2.135-3.06-1.022-4.016s1.316-9.378-5.841-8.104c-7.157 1.273-15.472 0.217-17.858-0.5-2.387-0.716-5.567 1.036-7.794-1.51s-5.736-3.628-9.394-4.342c-2.284-0.445-2.768-1.83-6.911-2.896-2.784-0.717-6.099-1.793-9.882-3.238-5.549-2.118-6.936-0.803-8.177-2.044-1.99-1.99-4.892-1.971-6.79-2.482-2.546-0.687-7.815-0.933-6.425-4.308 1.533-3.724-1.022-6.937-2.118-7.302-1.625-0.541-2.891-0.493-5.914-1.606-3.024-1.107-3.108-2.558-2.581-3.035z" fill="#000A7F"/>
  <path id="path1392" d="m144.72 50.503c0 0.78-0.39 1.365 0.584 1.559s0.974-0.39 1.559-1.559c0.584-1.168 0.972-1.36 0.388-2.14s0-0.586-1.168-0.78c-1.168-0.194-1.556-0.582-1.556 0.78s-0.194 0.584 0 1.362l0.2 0.778z" fill="#000A7F"/>
  <path id="path1394" d="m256.89 70.414c0 1.241 0.995 1.859 1.985 0.621 0.99-1.239 1.236-1.485 2.478-1.611s2.113-0.993 1.862-1.985-0.744-0.742-1.487-0.867c-0.744-0.126-0.867-1.242 1.61-0.993 2.478 0.249 3.104 0.618 4.094 1.859s-0.005 1.734 1.236 2.231c1.241 0.498 3.103 1.116 1.985 2.108-1.118 0.993-0.739 1.364-0.99 2.108s1.236 0.744-1.241 0.495c-2.479-0.249-2.108-0.124-2.976-0.744s0.118-0.621-1.738-0.372c-1.857 0.249-1.488-0.621-3.099 0.123s-1.365 1.241-2.355 0.498c-0.99-0.744-0.25-0.867-1.364-1.116-1.113-0.249-1.482-0.124-1.113-1.116 0.35-0.991 1.1-1.239 1.1-1.239z" fill="#000A7F"/>
  <path id="path1396" d="m226.39 80.457c0 0.867 1.231 1.485 1.359 0.619 0.13-0.868-1.36-2.23-1.36-0.619z" fill="#000A7F"/>
  <path id="path1398" d="m229.98 84.3c1.132 0.565 1.118 0.495 1.862 1.859 0.743 1.364 1.738 1.985 2.605 1.736s2.227-0.125 2.848-0.993c0.62-0.867 1.118-1.611-0.493-1.982-1.61-0.372-2.61-1.116-3.227-1.488-0.615-0.372-1.984-0.125-3.098-0.498-1.11-0.371-1.73 0.745-0.49 1.366z" fill="#000A7F"/>
  <path id="path1400" d="m189.44 94.629c0.078-2.227 0.401-1.354 1.273-1.83 0.872-0.477 0.237-1.191 0.237-2.067s2.231-1.989 1.989 1.59c-0.241 3.58 0.877 1.99 1.273 1.91 0.397-0.08 0.237 2.147-0.717 2.704-0.953 0.557-0.314 2.069-2.623 1.83-2.31-0.239-1.429-2.069-1.273-2.546 0.16-0.478-0.16-1.591-0.16-1.591z" fill="#000A7F"/>
  <path id="path1402" d="m181.17 100.36c1.593 0 1.114 2.943-0.159 2.784s-0.79-2.78 0.16-2.78z" fill="#000A7F"/>
  <path id="path1404" d="m186.74 89.698c0.73 0.05 0.881 2.227 0.082 2.067-0.8-0.16-1.19-2.144-0.08-2.067z" fill="#000A7F"/>
  <path id="path1406" d="m194.06 85.242c-1.082-0.7-1.985 1.034-0.954 1.67s2.54-0.637 0.95-1.67z" fill="#000A7F"/>
  <path id="path1408" d="m177.91 88.425c0.799 0.066 1.278-1.193 0.242-1.193s-1.2 1.113-0.24 1.193z" fill="#000A7F"/>
  <path id="path1410" d="m174.17 127.24c1.191 1.51 2.228 3.021 2.067 0.954-0.159-2.067 0.397-1.987-0.159-2.544-0.558-0.557-0.073-1.433-1.429-1.353-1.35 0.08-1.35 1.82-0.48 2.94z" fill="#000A7F"/>
  <path id="path1412" d="m171.87 132.09c-0.812 0.81-2.313 0.317-1.354-0.876 0.95-1.19 2.06 0.17 1.35 0.88z" fill="#000A7F"/>
  <path id="path1414" d="m162.39 303.82c0.08-2.706 2.466-7.794 5.647-11.454 3.181-3.659 5.407-15.108 5.964-22.429 0.261-3.395 0.771-7.022 0.918-10.085 7.593-2.117 2.441-1.314-0.073-1.679 0.032-1.169-0.16-5.467-0.685-7.73-0.379-1.629-1.729-5.129-1.287-7.237 2.774-0.365 2.629-1.533-0.99-1.109-0.543-1.552-1.159-3.039-1.937-4.622-1.99-4.058-0.879-2.943 0.316-3.341 1.196-0.396 3.737-3.582 0-1.989s-2.706 0-3.5-1.273-1.513-1.907-1.75-2.861 0.796-1.752 1.433-1.989c0.636-0.237 1.034-2.387-0.557-1.671-1.59 0.717-2.307-0.639-2.784-2.706-0.477-2.066-1.83-5.48-2.943-6.835s-3.261-5.016 0.716-8.355c3.977-3.341 2.544-8.584 2.067-10.099-0.477-1.516-1.271-3.66-2.147-4.614-0.876-0.953-1.967-2.848-1.59-3.107s2.859 2.149 1.764-0.99c4.162-5.33-1.99 0.384-2.118 0.146-0.235-0.438-0.465-0.804 0.037-1.306 0.794-0.794 2.225-1.351 3.101-3.021s2.149-3.021 2.706-5.567c0.557-2.547 1.51-3.181 2.146-5.17 0.637-1.99 0.399-2.702 1.75-2.624 1.352 0.077 2.544-1.196 0.954-1.753 0 0-1.59 0.087-1.033-2.222 0.557-2.31 0.477-3.021 0.316-4.217-0.159-1.195-0.314-3.582 0.399-3.423 0.715 0.16 2.784 0.319 0.557-1.351-2.229-1.67-0.876-1.515-0.956-1.989-0.079-0.475-0.237-0.479-0.953-0.794-0.717-0.317-0.24-2.941 1.431-1.511 1.67 1.431 2.231 1.588 3.422 1.511 1.191-0.08 2.861-1.593 0.635-1.99-2.228-0.397-2.464-0.557-2.464-0.954s-0.879-1.191-1.593-0.874c-0.715 0.317-1.438-1.985 0.479-1.114 0.872 0.397 0.954-0.157 1.114-0.557 0.159-0.399 1.51-0.634 1.67 0.08 0.159 0.714 0.396 1.031 0.557 1.748 0.159 0.716 0.794 1.113 1.511 0.796 0.716-0.317 1.752-0.716 0.876-1.75s-0.722-0.16-1.355-0.637c-0.635-0.477-0.397-0.954-0.078-1.51 0.32-0.557 0.005-1.191 0.32-2.624 0.314-1.433 0.479-3.34-0.16-4.057s-0.16-3.101 0.794-2.864 2.469 1.588 1.753 1.431c-0.717-0.157-1.355 1.275-0.64 1.513 0.717 0.237 2.31 0.714 2.866 0.237s1.026-1.51 0.155-2.387c-0.872-0.876-0.717-2.386-0.237-3.023 0.479-0.637 1.195-0.796 1.989 0.08s1.748 0.634 1.748 1.59 0.953 1.752 1.272 0.24c0.32-1.513 0.64-2.307 1.036-2.864 0.397-0.557 0.954-2.307 1.907-2.307 0.954 0 0.479-0.554 0.479-2.067s1.036-2.382 1.67-3.338c0.635-0.956 0.794-2.466 1.031-3.5s1.036-1.59 1.99-1.75c0.953-0.16 1.428 0.479 0.475 1.273-0.954 0.794-1.351 1.592-0.475 2.863s0.876 2.943 0.396 3.897c-0.479 0.954-2.706 3.183-1.113 3.34 1.593 0.158 1.429 1.353 0.635 2.784s-1.748 3.34-1.191 5.487 0.562 2.943 1.433 3.42c0.872 0.477 0.237 0.554 0.954-0.16s1.108-1.271 1.588 0.399c0.479 1.67-0.077 1.271 1.195 0.714 1.273-0.557 1.269-1.348 1.352-2.384 0.082-1.036 0.953-1.273 1.433-2.307s0.479-1.59 0.717-2.387c0.236-0.796 1.272-0.874 1.51 1.113s0.16 2.781 1.273 2.624 0.949-0.634 1.191-0.794c0.241-0.16 0.475 0.157 0.953 0.714 0.479 0.557 0.804 0.954 0.959 0 0.154-0.954-0.722-1.431-1.516-1.988s-1.269-1.033-1.031-2.227 0.557-1.353 0-2.387-0.794-0.794-1.113-1.51c-0.319-0.717-0.319-1.752-0.319-3.183s-0.872-2.941 0.082-3.021c0.954-0.08 1.588 0.716 1.748 2.227 0.159 1.51 0.634 1.907 0.634 3.101s0.242 5.49 1.036 5.49 1.269-1.116 1.19-2.546c-0.077-1.431-0.634-2.227-0.475-3.897 0.16-1.67 0.083-3.263-1.351-5.25-1.433-1.987-2.865-3.655-2.865-5.248 0-1.592-0.954-4.216 0.319-5.807s2.227-3.897 3.737-1.59 1.433 1.351 1.989 1.907 1.273 1.351 1.113 2.307c-0.159 0.956-0.396 1.752 0.397 2.069 0.794 0.317 1.752 0.954 1.593-0.24-0.16-1.193-0.16-0.956-0.479-1.91s0-1.193-0.716-1.51c-0.717-0.317-0.635-1.908 0.639-0.874 1.272 1.034 1.113 0.872 2.067 1.748 0.953 0.876 4.535 0.083 2.386-0.794-2.148-0.876-1.752-1.353-1.752-1.91s-0.396-0.319-1.907-0.637c-1.511-0.317-2.231-0.16-2.706-1.034s-0.237-1.513-1.191-1.273c-0.953 0.24-0.159-1.269 0.794-1.748 0.954-0.479 1.671-1.114 3.104-0.796 1.433 0.317 1.989-0.399 3.5-0.16s2.063 0.002 2.861-0.874 1.757-0.796 0.241-1.75c-1.515-0.954-0.639-0.956-0.639-1.273s-0.314-0.16-1.588 0.08-0.562 1.353-2.309-0.557c-1.748-1.91-1.99-2.467-2.547-4.137s-1.748-4.851 0.717-6.681c2.464-1.83 3.495-2.704 4.134-3.5 0.64-0.796 1.273-1.75 0.16-2.387s0.397-1.75 2.227-1.113c1.83 0.636 2.067 0.319 3.021 0.239 0.953-0.08 0.958 0.319 0.798-1.034-0.159-1.353 0.553-2.783 3.259-0.16 2.706 2.624 3.737 1.67 4.851 2.227s2.866 1.269 3.582 2.384c0.717 1.116 3.099 1.433 5.011 0.399s4.938-0.397 7.082 1.193c2.146 1.59 2.3 1.985 2.542 4.134s1.675 3.58 5.572 3.42c3.896-0.16 4.376-0.083 5.887 1.987 1.51 2.069 3.975 1.592 5.17 1.83s3.107 1.353 4.458 1.75c1.352 0.397 2.067 1.271 2.861 0.714s1.434-0.557 2.149-0.397c0.717 0.16 1.907 1.036 1.031 1.433s-0.237 1.353 1.036 1.114c1.273-0.24 1.511-0.796 1.351 0.954-0.159 1.75-0.068 0.956 0.246 2.069 0.315 1.114 0.393 1.351 1.429 2.624s1.191 1.351 2.067 2.784 1.515 3.101-0.078 3.42c-1.592 0.319-1.829 0.317-2.386 1.75-0.558 1.433-1.511 1.828-2.228 2.464-0.716 0.637-0.396 2.227 1.99 4.137s4.057 3.422 5.407 4.693 1.67 6.044 1.907 8.271c0.237 2.227 0.635 4.132-0.717 5.725-1.158 1.369-0.798 3.146-0.269 4.025 0.087 0.144 0.178 0.263 0.269 0.352-5.042 2.882-1.392 1.933 0.799 2.663 0.401 1.204 1.265 2.751 1.113 3.541-0.319 1.67-1.433 3.181-1.592 3.181-1.57-0.005-1.511 0.953-1.511 2.387 0 0.794-0.954 1.51-1.273 0.716s-0.237-1.984-0.794-2.067c-0.557-0.082 0.242-0.639-0.557-0.082s-1.511 0.237-1.273 2.228c0.237 1.989-1.433 3.099-1.272 5.407 0.159 2.309 1.354 5.964-1.908 7.954 0 0-2.149 0.483-2.865 2.628-0.717 2.146-1.903 0.233-3.418 1.269-1.516 1.036-4.144 1.83-4.299 4.217s-0.876 2.469-0.954 3.582c-0.077 1.113 0.242 4.14-0.475 5.171-0.716 1.031 0.078 3.893 1.511 5.484 1.433 1.593 2.943 3.747 3.897 3.587 0.953-0.159 3.336-1.67 4.134-0.319 0.799 1.351 0.959 1.593 1.355 2.387 0.397 0.794 1.187-0.155 1.825-1.191 0.639-1.035 1.675-1.916 2.392-3.504 0.716-1.588 1.985-2.146 2.861-2.305 0.876-0.16 2.227-3.025 3.103-5.016 0.876-1.989 1.748-5.17 2.547-5.489 0.798-0.319 1.113-2.305 1.433-3.181s0.871-0.237 1.351-0.954c0.479-0.716 0.562-2.231 1.516-2.469 0.953-0.237 2.304-0.072 3.18-0.314 0.877-0.242 1.114-1.835 1.434-1.912s3.181 0.164 3.737-1.985 8.277-4.294 12.892 2.943c4.613 7.237 4.608 7.712 5.088 9.542 0.479 1.83 0.716 7.397 1.593 9.624 0.876 2.228 4.144 9.077 4.618 15.36 0.475 6.284 1.825 5.563 2.145 7.475s0.396 0.557-0.16 1.355 0.484 1.511 1.355 1.273c0.872-0.237 0.63 2.227 0.712 2.943s1.118 2.231 2.072 2.865c0.953 0.635 0.629 4.057-0.242 5.011-0.872 0.954-0.867 4.139-0.712 6.681s0.634 6.763 0.077 8.273-0.314 4.135-1.351 4.454-1.984-0.315-2.464-1.588c-0.479-1.273-4.222-1.985-4.855-1.114-0.635 0.872-5.567 2.624-3.578 3.975 1.99 1.352 0.64 2.469-0.634 3.423s-1.593 0.479-1.433 3.104c0.159 2.624 0.232 2.464 0.475 3.896 0.241 1.433-1.196 3.263-4.14 5.093s-6.046 1.355-6.443 6.047c-0.396 4.69 1.475 8.716-0.424 9.665-2.095 1.05-1.565 2.428-1.565 3.222s-0.397 2.469-1.113 2.706c-0.717 0.237-1.191 2.305-1.031 2.624 0.159 0.319-1.273 0.552-1.99 0.634-0.716 0.082-0.721-0.241-1.515 1.67-0.794 1.912-0.958 1.985-1.113 2.943-0.155 0.959 0.087 0.795-0.712 1.434s-0.16 0.479-0.16 0.479l-133.83 0.12z" fill="#000A7F"/>
  <path id="path1416" d="m195.44 135.37c0.365-1.168 0-2.19 0.729-2.848 0.73-0.657 1.753-0.876 1.533 0.292-0.219 1.168-0.292 1.46-0.584 2.336s-0.219 1.022 0 2.118c0.22 1.095-0.072 1.168-0.511 2.117s-1.68 2.556-1.898 1.679c-0.219-0.876-0.657-1.314 0.073-1.825s0.803 0.584 1.022-0.657c0.219-1.241 0.949-1.752 0.219-1.825s-1.314-0.219-0.949-0.803 0.37-0.59 0.37-0.59z" fill="#000A7F"/>
  <metadata>
    <rdf:RDF>
      <cc:Work>
        <dc:format>image/svg+xml</dc:format>
        <dc:type rdf:resource="http://purl.org/dc/dcmitype/StillImage"/>
        <cc:license rdf:resource="http://creativecommons.org/licenses/publicdomain/"/>
        <dc:publisher>
          <cc:Agent rdf:about="http://openclipart.org/">
            <dc:title>Openclipart</dc:title>
          </cc:Agent>
        </dc:publisher>
        <dc:title>state of Michigan</dc:title>
        <dc:date>2008-02-09T00:21:38</dc:date>
        <dc:description>clip art, clipart, geography, geography, image, media, michigan, michigan, penninsula, penninsula, png, public domain, state, state, svg, usa, usa, </dc:description>
        <dc:source>http://openclipart.org/detail/13214/state-of-michigan-by-anonymous</dc:source>
        <dc:creator>
          <cc:Agent>
            <dc:title>Anonymous</dc:title>
          </cc:Agent>
        </dc:creator>
        <dc:subject>
          <rdf:Bag>
            <rdf:li>clip art</rdf:li>
            <rdf:li>clipart</rdf:li>
            <rdf:li>geography</rdf:li>
            <rdf:li>image</rdf:li>
            <rdf:li>media</rdf:li>
            <rdf:li>michigan</rdf:li>
            <rdf:li>penninsula</rdf:li>
            <rdf:li>png</rdf:li>
            <rdf:li>public domain</rdf:li>
            <rdf:li>state</rdf:li>
            <rdf:li>svg</rdf:li>
            <rdf:li>usa</rdf:li>
          </rdf:Bag>
        </dc:subject>
      </cc:Work>
      <cc:License rdf:about="http://creativecommons.org/licenses/publicdomain/">
        <cc:permits rdf:resource="http://creativecommons.org/ns#Reproduction"/>
        <cc:permits rdf:resource="http://creativecommons.org/ns#Distribution"/>
        <cc:permits rdf:resource="http://creativecommons.org/ns#DerivativeWorks"/>
      </cc:License>
    </rdf:RDF>
  </metadata>
</svg>
